# xmcd
#
# Track frame offsets:
#	150
#	11864
#	25529
#	37554
#	49563
#	64109
#	76229
#	91618
#	108898
#	121212
#	136978
#	150145
#	163718
#	180023
#
# Disc length: 2600 seconds
#
# Revision: 0
# Processed by: cddbd v1.5.2PL0 Copyright (c) Steve Scherf et al.
# Submitted via: audiograbber 1.83.01
#
DISCID=870a260e
DTITLE=DIE BRIXENTAL BUAM - Sonnenschein und Volksmusik
DYEAR=2012
DGENRE=volkstümlich
TTITLE0=Tiroler Buam
TTITLE1=Brixental Lied
TTITLE2=Sonnenschein und Volksmusik
TTITLE3=10 Jahre - keine Frage
TTITLE4=Alle sing'n ma - wo sind die Finger
TTITLE5=Servus fesche Maus
TTITLE6=Zurück in die Heimat
TTITLE7=Schaust du mir heut noch einmal in die Augen
TTITLE8=Sonne, Strand und Meer
TTITLE9=A Garantie hat man nie
TTITLE10=Geburtstagsboarischer
TTITLE11=Sambuca
TTITLE12=I kenn wen
TTITLE13=I will stark sein für di
EXTD=
EXTT0=
EXTT1=
EXTT2=
EXTT3=
EXTT4=
EXTT5=
EXTT6=
EXTT7=
EXTT8=
EXTT9=
EXTT10=
EXTT11=
EXTT12=
EXTT13=
PLAYORDER=
